# xmcd CD database file
#
# Track frame offsets:
#	183
#	39243
#	106368
#	159115
#	216863
#	264103
#
# Disc length: 4043 seconds
#
# Revision: 1
# Processed by: cddbd v1.5.2PL0 Copyright (c) Steve Scherf et al.
# Submitted via: CDex 1.70beta2
#
DISCID=3f0fc906
DTITLE=Arshie Shepp - les genies du jazz VI 06 - Archie Shepp (The Free Jazz Tenorman)
DYEAR=1900
DGENRE=Jazz
TTITLE0=Air
TTITLE1=Lazy Afternoon
TTITLE2=Cell Walk for Celeste
TTITLE3=Lush Life
TTITLE4=U-Jamaa
TTITLE5=Stream
EXTD=
EXTT0=
EXTT1=
EXTT2=
EXTT3=
EXTT4=
EXTT5=
PLAYORDER=
